<svg xmlns="http://www.w3.org/2000/svg" viewBox="0 0 500 500"><g id="freepik--background-simple--inject-2"><path d="M156.87,466.82s-89.36-33.92-130.73-139S133.7,149.1,132,133.38s-105.9-24-43.85-74.47S367.85,2.65,447.29,111,444,255,435.7,274s73.64,26.47,16.55,124.11S222.23,493.3,156.87,466.82Z" style="fill:#77FFC0"></path><path d="M156.87,466.82s-89.36-33.92-130.73-139S133.7,149.1,132,133.38s-105.9-24-43.85-74.47S367.85,2.65,447.29,111,444,255,435.7,274s73.64,26.47,16.55,124.11S222.23,493.3,156.87,466.82Z" style="fill:#fff;opacity:0.7000000000000001"></path></g><g id="freepik--Clouds--inject-2"><path d="M449.91,65.7S436,35.11,412.36,25.38,361.6,52.49,358.82,58.75,343.52,40.67,331,47.63s-16.69,16-17.39,18.07-14.6-9.73-19.47-7-9,8.34-9,8.34l-18.78,8.35H470.77S461.73,57.36,449.91,65.7Z" style="fill:none;stroke:#000;stroke-miterlimit:10;opacity:0.30000000000000004"></path><path d="M132.39,141.73s-8.6-18.93-23.23-25S77.75,133.55,76,137.43s-9.46-11.19-17.21-6.89-10.32,9.9-10.76,11.19-9-6-12-4.3a22.37,22.37,0,0,0-5.6,5.16l-11.61,5.16H145.3S139.71,136.57,132.39,141.73Z" style="fill:none;stroke:#000;stroke-miterlimit:10;opacity:0.30000000000000004"></path></g><g id="freepik--Rocks--inject-2"><ellipse cx="160.03" cy="447.92" rx="17.37" ry="5.67" style="fill:none;stroke:#263238;stroke-miterlimit:10"></ellipse><ellipse cx="309.42" cy="463.98" rx="31.47" ry="10.28" style="fill:none;stroke:#263238;stroke-miterlimit:10"></ellipse><path d="M62.42,436.54c0,2.83-5.43,5.13-12.13,5.13s-12.12-2.3-12.12-5.13,5.43-5.12,12.12-5.12S62.42,433.71,62.42,436.54Z" style="fill:none;stroke:#263238;stroke-miterlimit:10"></path><path d="M112.44,437c0,1.87-2.88,3.39-6.42,3.39S99.6,438.87,99.6,437s2.87-3.4,6.42-3.4S112.44,435.12,112.44,437Z" style="fill:none;stroke:#263238;stroke-miterlimit:10"></path><ellipse cx="209.13" cy="435.07" rx="6.8" ry="4.91" style="fill:none;stroke:#263238;stroke-miterlimit:10"></ellipse><ellipse cx="462.58" cy="407.8" rx="6.8" ry="2.45" style="fill:none;stroke:#263238;stroke-miterlimit:10"></ellipse><path d="M377.52,442.89c0,1.36-1.53,2.46-3.4,2.46s-3.4-1.1-3.4-2.46,1.52-2.45,3.4-2.45S377.52,441.54,377.52,442.89Z" style="fill:none;stroke:#263238;stroke-miterlimit:10"></path><path d="M277.39,428.66c0,1.36-1.52,2.46-3.4,2.46s-3.4-1.1-3.4-2.46,1.52-2.45,3.4-2.45S277.39,427.31,277.39,428.66Z" style="fill:none;stroke:#263238;stroke-miterlimit:10"></path><path d="M198.18,407.11c0,1.25-1.86,2.26-4.15,2.26s-4.16-1-4.16-2.26,1.86-2.27,4.16-2.27S198.18,405.85,198.18,407.11Z" style="fill:none;stroke:#263238;stroke-miterlimit:10"></path><path d="M432,460.38c0,3.75-6.43,6.8-14.36,6.8s-14.35-3.05-14.35-6.8,6.43-6.8,14.35-6.8S432,456.63,432,460.38Z" style="fill:none;stroke:#263238;stroke-miterlimit:10"></path></g><g id="freepik--plants-3--inject-2"><g style="opacity:0.30000000000000004"><path d="M289.12,315a63.93,63.93,0,0,1-9.6,13.64l-.74.83c-2.19,2.37-4.59,4.8-7.13,7.25-1.92,1.85-3.92,3.71-6,5.56l-3.14,2.81c-15.62,13.78-33.17,27-39.64,33.83-9.05,9.51-9.51,12.23-9.51,12.23s42.13-20.38,40.32-11.32q-.22,1.11-.51,2.16a42.9,42.9,0,0,1-1.55,4.8,48.88,48.88,0,0,1-4.74,9.34s4.16-1.48,8.89-2.94c2.55-.79,5.28-1.57,7.6-2.11.65-.15,1.28-.28,1.86-.39,3.2-.6,5.05-.44,3.39,1.36l-5,5.44s9.51,1.36,14,1.36l.55,0H141.79l7.29-3.64s-16.76-20.84-8.61-20.38,19.12,17.13,19.47,17.65c-.16-1.52-13-117.4,5.9-131.8,6.87-5.24.9,84.25.9,84.25s36.69-145.39,46.65-130.45c7.59,11.39-12.67,85.3-22.76,119.89,10.05-31.31,33.37-93.55,61.71-100,38.06-8.6-38.49,89.69-45.74,110.52S199.35,378,199.35,378s16.76-53,59.79-72.93c15.16-7,24.25-8.48,28.92-6.61a6.19,6.19,0,0,1,4,5.75C292.27,307.16,291.16,310.93,289.12,315Z" style="fill:none;stroke:#000;stroke-miterlimit:10"></path><path d="M160.15,333c-.51-16.76.2-35.14,3.42-52.85" style="fill:none;stroke:#000;stroke-miterlimit:10"></path><path d="M166.39,390a377.9,377.9,0,0,1-6.1-53" style="fill:none;stroke:#000;stroke-miterlimit:10"></path><path d="M180.4,337.88c-2.39,13.31-4.35,26.94-5.51,40.1" style="fill:none;stroke:#000;stroke-miterlimit:10"></path><path d="M203.88,243.45a813,813,0,0,0-22.58,89.49" style="fill:none;stroke:#000;stroke-miterlimit:10"></path><path d="M191.14,362.38a158.8,158.8,0,0,0-5.38,25.56" style="fill:none;stroke:#000;stroke-miterlimit:10"></path><path d="M234.82,269.59c-12.06,19.59-32.22,55.18-42.81,89.85" style="fill:none;stroke:#000;stroke-miterlimit:10"></path><path d="M244.65,254.32s-2.72,3.95-7,10.74" style="fill:none;stroke:#000;stroke-miterlimit:10"></path><path d="M276.8,312.3q-2.4,1.41-4.73,2.88" style="fill:none;stroke:#000;stroke-miterlimit:10"></path><path d="M267.68,318c-1.32.89-2.61,1.79-3.89,2.7" style="fill:none;stroke:#000;stroke-miterlimit:10"></path><path d="M219.15,365.62a200.76,200.76,0,0,1,41.25-42.4" style="fill:none;stroke:#000;stroke-miterlimit:10"></path><path d="M202.52,392.92A172.09,172.09,0,0,1,217.43,368" style="fill:none;stroke:#000;stroke-miterlimit:10"></path><path d="M473.82,328.51A53.86,53.86,0,0,1,465.77,340l-.62.68c-1.83,2-3.85,4-6,6.09-1.61,1.55-3.29,3.11-5,4.66-.86.78-1.74,1.57-2.63,2.35-13.09,11.56-27.81,22.68-33.23,28.37-7.6,8-8,10.26-8,10.26s35.32-17.09,33.8-9.5c-.12.62-.26,1.22-.42,1.82a35.75,35.75,0,0,1-1.3,4,41.08,41.08,0,0,1-4,7.83s3.48-1.24,7.45-2.46c2.14-.66,4.43-1.32,6.37-1.77.55-.13,1.08-.24,1.56-.33,2.69-.5,4.24-.37,2.85,1.14l-4.18,4.57s8,1.13,11.77,1.13l.46,0H350.28l6.11-3.06s-14.05-17.47-7.22-17.09,16,14.37,16.33,14.81c-.13-1.27-10.9-98.44,4.95-110.52,5.76-4.39.76,70.65.76,70.65S402,231.71,410.32,244.23c6.37,9.55-10.62,71.53-19.08,100.53,8.42-26.25,28-78.44,51.74-83.81,31.91-7.22-32.28,75.2-38.35,92.67s-6.08,27.72-6.08,27.72,14.05-44.43,50.13-61.14c12.71-5.89,20.33-7.11,24.25-5.54a5.15,5.15,0,0,1,3.36,4.81C476.46,322,475.53,325.12,473.82,328.51Z" style="fill:none;stroke:#000;stroke-miterlimit:10"></path><path d="M365.67,343.62a215.16,215.16,0,0,1,2.87-44.31" style="fill:none;stroke:#000;stroke-miterlimit:10"></path><path d="M370.91,391.4A317.53,317.53,0,0,1,365.79,347" style="fill:none;stroke:#000;stroke-miterlimit:10"></path><path d="M382.66,347.73c-2,11.15-3.65,22.58-4.62,33.61" style="fill:none;stroke:#000;stroke-miterlimit:10"></path><path d="M402.35,268.54a679.56,679.56,0,0,0-18.93,75" style="fill:none;stroke:#000;stroke-miterlimit:10"></path><path d="M391.66,368.27a134.93,134.93,0,0,0-4.51,21.43" style="fill:none;stroke:#000;stroke-miterlimit:10"></path><path d="M428.29,290.46c-10.11,16.42-27,46.27-35.9,75.34" style="fill:none;stroke:#000;stroke-miterlimit:10"></path><path d="M436.53,277.66s-2.28,3.31-5.87,9" style="fill:none;stroke:#000;stroke-miterlimit:10"></path><path d="M463.49,326.27c-1.35.79-2.67,1.59-4,2.42" style="fill:none;stroke:#000;stroke-miterlimit:10"></path><path d="M455.84,331.08c-1.1.75-2.19,1.5-3.26,2.26" style="fill:none;stroke:#000;stroke-miterlimit:10"></path><path d="M415.15,371a168.23,168.23,0,0,1,34.59-35.55" style="fill:none;stroke:#000;stroke-miterlimit:10"></path><path d="M401.21,393.88A144,144,0,0,1,413.71,373" style="fill:none;stroke:#000;stroke-miterlimit:10"></path><path d="M9.55,328.51A53.86,53.86,0,0,0,17.6,340l.62.68c1.83,2,3.85,4,6,6.09,1.61,1.55,3.29,3.11,5,4.66.87.78,1.75,1.57,2.64,2.35,13.09,11.56,27.81,22.68,33.23,28.37,7.6,8,8,10.26,8,10.26s-35.32-17.09-33.8-9.5c.12.62.26,1.22.42,1.82a35.76,35.76,0,0,0,1.29,4,41.42,41.42,0,0,0,4,7.83s-3.48-1.24-7.45-2.46c-2.14-.66-4.43-1.32-6.37-1.77-.55-.13-1.08-.24-1.56-.33-2.69-.5-4.24-.37-2.85,1.14l4.18,4.57s-8,1.13-11.77,1.13l-.46,0H133.09L127,395.77s14-17.47,7.22-17.09-16,14.37-16.33,14.81c.13-1.27,10.9-98.44-5-110.52-5.76-4.39-.76,70.65-.76,70.65S81.4,231.71,73.05,244.23c-6.37,9.55,10.62,71.53,19.08,100.53-8.42-26.25-28-78.44-51.74-83.81-31.91-7.22,32.28,75.2,38.35,92.67s6.08,27.72,6.08,27.72-14-44.43-50.13-61.14c-12.71-5.89-20.33-7.11-24.25-5.54a5.15,5.15,0,0,0-3.36,4.81C6.91,322,7.84,325.12,9.55,328.51Z" style="fill:none;stroke:#000;stroke-miterlimit:10"></path><path d="M117.7,343.62a214.49,214.49,0,0,0-2.88-44.31" style="fill:none;stroke:#000;stroke-miterlimit:10"></path><path d="M112.46,391.4A316.37,316.37,0,0,0,117.57,347" style="fill:none;stroke:#000;stroke-miterlimit:10"></path><path d="M100.71,347.73c2,11.15,3.65,22.58,4.62,33.61" style="fill:none;stroke:#000;stroke-miterlimit:10"></path><path d="M81,268.54a679.56,679.56,0,0,1,18.93,75" style="fill:none;stroke:#000;stroke-miterlimit:10"></path><path d="M91.71,368.27a133.78,133.78,0,0,1,4.5,21.43" style="fill:none;stroke:#000;stroke-miterlimit:10"></path><path d="M55.08,290.46c10.11,16.42,27,46.27,35.9,75.34" style="fill:none;stroke:#000;stroke-miterlimit:10"></path><path d="M46.84,277.66s2.28,3.31,5.87,9" style="fill:none;stroke:#000;stroke-miterlimit:10"></path><path d="M19.88,326.27c1.35.79,2.67,1.59,4,2.42" style="fill:none;stroke:#000;stroke-miterlimit:10"></path><path d="M27.53,331.08c1.1.75,2.19,1.5,3.26,2.26" style="fill:none;stroke:#000;stroke-miterlimit:10"></path><path d="M68.22,371a168.23,168.23,0,0,0-34.59-35.55" style="fill:none;stroke:#000;stroke-miterlimit:10"></path><path d="M82.16,393.88A144,144,0,0,0,69.66,373" style="fill:none;stroke:#000;stroke-miterlimit:10"></path><path d="M263.4,391c-2.32.54-5,1.32-7.6,2.11a54.57,54.57,0,0,1-4.15-6.4,42.9,42.9,0,0,0,1.55-4.8C256.79,383.09,260.92,387.82,263.4,391Z" style="fill:none;stroke:#000;stroke-miterlimit:10"></path><path d="M348.38,398.58a11.45,11.45,0,0,1,2.11.25H278.26l-.55,0c-4.53,0-14-1.36-14-1.36l5-5.44c1.66-1.8-.19-2-3.39-1.36-.77-7.66-2.5-26.87-2.72-45.6l3.14-2.81c2.05-1.85,4.05-3.71,6-5.56-.5,12.73-1.26,24-1.26,24s3.56-14.09,8.39-31.27l.74-.83a63.93,63.93,0,0,0,9.6-13.64c2-4,3.15-7.8,2.95-10.77a6.19,6.19,0,0,0-4-5.75c6.15-18.91,12.23-33.74,15.12-29.41,5.34,8-8.91,60-16,84.27,7.05-22,23.45-65.76,43.37-70.27,26.74-6-27.05,63-32.14,77.67s-5.1,23.24-5.1,23.24,11.78-37.24,42-51.25,26.1,3.5,14.32,16.55-33.42,28.65-39.78,35.33-6.69,8.6-6.69,8.6,29.6-14.33,28.33-8a34.84,34.84,0,0,1-4.77,11.45c.45-.15,18.73-6.63,15.27-2.86l-3.5,3.82S345.2,398.58,348.38,398.58Z" style="fill:none;stroke:#000;stroke-miterlimit:10"></path><path d="M265.76,352.32c-.1-3.29-.13-6.66-.08-10.08" style="fill:none;stroke:#000;stroke-miterlimit:10"></path><path d="M270.15,392.36a265.71,265.71,0,0,1-4.29-37.25" style="fill:none;stroke:#000;stroke-miterlimit:10"></path><path d="M280,355.76c-1.67,9.35-3.06,18.93-3.87,28.18" style="fill:none;stroke:#000;stroke-miterlimit:10"></path><path d="M289.12,315c-2.79,10.62-5.92,23.66-8.49,37.33" style="fill:none;stroke:#000;stroke-miterlimit:10"></path><path d="M296.49,289.4s-1.83,5.64-4.42,14.79" style="fill:none;stroke:#000;stroke-miterlimit:10"></path><path d="M287.54,373a112.11,112.11,0,0,0-3.78,18" style="fill:none;stroke:#000;stroke-miterlimit:10"></path><path d="M318.24,307.77c-8.48,13.76-22.65,38.78-30.09,63.14" style="fill:none;stroke:#000;stroke-miterlimit:10"></path><path d="M325.14,297s-1.91,2.77-4.91,7.54" style="fill:none;stroke:#000;stroke-miterlimit:10"></path><path d="M338.6,343.71c2.89-2.07,5.94-4.06,9.14-5.93" style="fill:none;stroke:#000;stroke-miterlimit:10"></path><path d="M307.23,375.25a141,141,0,0,1,29-29.79" style="fill:none;stroke:#000;stroke-miterlimit:10"></path><path d="M295.54,394.44A120.56,120.56,0,0,1,306,376.94" style="fill:none;stroke:#000;stroke-miterlimit:10"></path></g></g><g id="freepik--plant-2--inject-2"><path d="M109.41,409.24s-2.18-8.28-6.1-14.39-10.89-3.48-14.82.88-4.79,7.84-4.79,7.84-.87-20.48,10-25.71S114.64,394,114.64,394s-1.74-18.74-11.33-35.73S82,338.64,71.06,344.3,58,356.51,58,356.51s7.41-26.15,27.45-27,30.07,24.84,30.07,24.84-4.35-12.21-18.3-45.76S69.76,268,65.83,245.38s-5.66-30.94-5.66-30.94S78,255,88.93,270.22,115.51,309,119,325.13s7.84,52.29,7.84,52.29-5.75-39.14,4.36-64.93c12.32-31.39,31.46-36.92,45.32-31.81,9.06,3.33,14.82,13.94,14.82,13.94s-15.25-11.76-27.89-3.92-28.33,64.5-28.76,71.91l-.44,7.4s9.15-30.94,26.15-46.19,31.38-3.05,37.91,9.15c0,0-7.84-12.64-21.35-5.66s-29.2,45.32-32.25,55.34l-2.61,7.41S155.17,378.73,163,379.6s14.38,19.61,14.38,19.61-8.72-12.64-15.69-9.58-12.64,17.86-12.64,17.86l8.28,7.41-20-4.36,2.62,8.72-11.33-4.79-13.51,7.84,4.79-10-22.22,4.35Z" style="fill:#77FFC0;stroke:#263238;stroke-linecap:round;stroke-linejoin:round"></path><path d="M123.91,397.19c-1.9-10.84-6-29.82-13.13-42.74" style="fill:none;stroke:#263238;stroke-linecap:round;stroke-linejoin:round"></path><path d="M125.2,405.6s-.2-1.66-.63-4.44" style="fill:none;stroke:#263238;stroke-linecap:round;stroke-linejoin:round"></path><path d="M94.1,286.19c-5.26-9.32-10.36-17.81-14.47-25.18" style="fill:none;stroke:#263238;stroke-linecap:round;stroke-linejoin:round"></path><path d="M124.55,387.57s-1-35.42-10.82-61a286.08,286.08,0,0,0-16.45-34.66" style="fill:none;stroke:#263238;stroke-linecap:round;stroke-linejoin:round"></path><path d="M137.46,319.59c4.25-14.71,10.2-27.41,15-31.37,7.87-6.56,22.29-5.9,26.23-3.28" style="fill:none;stroke:#263238;stroke-linecap:round;stroke-linejoin:round"></path><path d="M128.81,403.63s2-30.49,3.28-54.43A130.54,130.54,0,0,1,136,324.94" style="fill:none;stroke:#263238;stroke-linecap:round;stroke-linejoin:round"></path><path d="M162.46,329.12c5.46-6,11.74-9.1,20.45-9.1" style="fill:none;stroke:#263238;stroke-linecap:round;stroke-linejoin:round"></path><path d="M134.49,390.07a136.71,136.71,0,0,1,10.06-29.72c5.48-11.69,10-21.05,15.07-27.79" style="fill:none;stroke:#263238;stroke-linecap:round;stroke-linejoin:round"></path><path d="M132.42,405.93a74.73,74.73,0,0,1,1.17-11.12" style="fill:none;stroke:#263238;stroke-linecap:round;stroke-linejoin:round"></path><path d="M148.23,393c2.81-3.19,6.1-6.21,9.43-7.69,8.86-3.93,11.15.66,11.15.66" style="fill:none;stroke:#263238;stroke-linecap:round;stroke-linejoin:round"></path><path d="M140.29,404a77.4,77.4,0,0,1,4.56-6.82" style="fill:none;stroke:#263238;stroke-linecap:round;stroke-linejoin:round"></path><path d="M109.34,393.22c-3.23-4.34-7.25-8.93-10.37-9.92-6.23-2-9.5,6.56-10.82,8.86" style="fill:none;stroke:#263238;stroke-linecap:round;stroke-linejoin:round"></path><path d="M115,401.66s-1.54-2.56-3.78-5.78" style="fill:none;stroke:#263238;stroke-linecap:round;stroke-linejoin:round"></path><path d="M74.71,337.73s4.59-3,15.41-1.64,16.72,11.47,16.72,11.47" style="fill:none;stroke:#263238;stroke-linecap:round;stroke-linejoin:round"></path></g><g id="freepik--plants-1--inject-2"><path d="M415.65,428.8l-7-5.48,13.3,4.31,3.91-11.74,2.74,11.35s3.91-11.35,7-16.43,11-13.31,11-13.31l-6.65,17.61,10.95-5.48-6.26,12.52L456.51,418l6.87-3.24-9.78,9,11.73-.4-3.52,3.53,6.26,1.17-27,1.56,15.26,5.48H405.48l13.69-3.13H403.59Z" style="fill:#77FFC0;stroke:#263238;stroke-linecap:round;stroke-linejoin:round"></path><path d="M30.61,411.78l-7-5.48,13.3,4.31,3.91-11.74,2.74,11.34s3.91-11.34,7-16.43,11-13.3,11-13.3l-6.65,17.61,10.95-5.48-6.26,12.52,11.91-4.19,6.87-3.24-9.78,9,11.74-.39-3.53,3.52L83,411l-27,1.56L71.3,418H20.44l13.69-3.13H18.55Z" style="fill:#77FFC0;stroke:#263238;stroke-linecap:round;stroke-linejoin:round"></path><path d="M186.07,431.35l-4.65-.87,2.61-2.62-8.72.29,7.27-6.68-5.1,2.41L168.63,427l4.65-9.3-8.14,4.07,4.94-13.08s-5.81,6.1-8.14,9.88-5.23,12.21-5.23,12.21l-2-8.43-2.91,8.72-4-1.31,3-2.79-3.25,1.54-1.75.62-2.75-.89,1.83-3.67-5.18,2.59,3.14-8.32a53.39,53.39,0,0,0-5.17,6.29,54,54,0,0,0-3.33,7.76l-1.3-5.36-1.85,5.55-6.28-2,3.33,2.59-5.7,1.48h7.36l-6.47,1.48h53.95L166,432.51Zm-43.24-2.76,1.38,1.07-2.32.82Z" style="fill:#77FFC0;stroke:#263238;stroke-linecap:round;stroke-linejoin:round"></path></g><g id="freepik--Shadow--inject-2"><ellipse cx="303.76" cy="417.96" rx="144.41" ry="18.25" style="opacity:0.30000000000000004"></ellipse></g><g id="freepik--Character--inject-2"><path d="M407.34,249.6s14.94-3.18,17.48-7.94" style="fill:none;stroke:#263238;stroke-linecap:round;stroke-linejoin:round"></path><path d="M261.93,271.4s-25.51-6-40.86,3.24-12.32,28.54-9.51,41.08,48,34.15,50.8,36.31,9.51,8.43,12.75,9.73a23.09,23.09,0,0,0,7.35,1.3s14.05,14.91,14.7,17.29-2.37,6.27-4.75,8.43S275.33,400,273.82,402.4s-.22,6.06,1.29,6.7,17.51,3.46,24.43,2.81,20.11-9.07,23.56-10.8,12.33-2.6,13.41-4.33-59-121.27-59-121.27Z" style="fill:#263238;stroke:#263238;stroke-linecap:round;stroke-linejoin:round"></path><path d="M249.59,258.2s-7.85,6.2-11,11.29,1.93,23.95,3.86,27.26,6.88,6.47,13.35,4.82,21.21-13.63,22.31-16.11-1.52-7-11.57-16.25S253.17,255,249.59,258.2Z" style="fill:#77FFC0;stroke:#263238;stroke-linecap:round;stroke-linejoin:round"></path><path d="M238.16,273.89s-3.16-2.47,2.2-2.47,12.39,13.49,13.63,21.06-1.79,8.26-3.3,8.4-5.37-1-6.2-2.48S237.75,283.12,238.16,273.89Z" style="fill:#77FFC0;stroke:#263238;stroke-linecap:round;stroke-linejoin:round"></path><path d="M237.29,213.37s5.33,30.48,11.12,41.45c9.9,18.76,29.57,31.33,31.79,34.2s97.26,50.85,97.26,50.85l16.53,8.9s22.89-27,23.84-49.9a143,143,0,0,0-5.4-43.23s7.94-3.49,9.53-6,2.86-7.94,2.86-7.94,8.58-9.22,7.63-15.58-13.67-28.6-24.16-32.42-27-.32-31.46-.32-10.81-.63-10.81-.63-2.86-9.22-6.36-11.44-16.21-4.77-16.21-4.77l-18.11-3.18s-17.17,15.57-36.56,29.56-47.36,2.54-47.36,2.54Z" style="fill:#77FFC0;stroke:#263238;stroke-linecap:round;stroke-linejoin:round"></path><polygon points="243.33 219.72 241.74 244.2 244.6 243.88 245.87 219.72 243.33 219.72" style="fill:none;stroke:#263238;stroke-linecap:round;stroke-linejoin:round"></polygon><polygon points="254.14 226.08 257 256.28 260.18 255.96 257 225.13 254.14 226.08" style="fill:none;stroke:#263238;stroke-linecap:round;stroke-linejoin:round"></polygon><path d="M241.42,209.55s1.59,16.21,4.14,18.76S278,223.22,289.74,215s34.32-27.66,40.68-31.79a78.26,78.26,0,0,1,13-6.67s-1.95-12.29-7.33-18.12c-10.7-11.59-28.69-9.86-28.69-9.86s-7.63-4.77-20.66-5.41a115.54,115.54,0,0,1-21.51-2.85Z" style="fill:#77FFC0;stroke:#263238;stroke-linecap:round;stroke-linejoin:round"></path><path d="M307.43,148.52s-7.63-4.77-20.66-5.41a115.54,115.54,0,0,1-21.51-2.85l-23.78,69.13,9.16-.79s1.59,5.09,23.2-12.71S296.62,154.56,307.43,148.52Z" style="fill:#d4d4d4;stroke:#263238;stroke-linecap:round;stroke-linejoin:round"></path><path d="M254.77,212.73s8.9,7.31,30.52-17.48,36.55-33.37,36.55-33.37" style="fill:none;stroke:#263238;stroke-linecap:round;stroke-linejoin:round"></path><path d="M253.82,220.36s4.77,2.54,17.48-2.86" style="fill:none;stroke:#263238;stroke-linecap:round;stroke-linejoin:round"></path><path d="M163.55,158.38s-.63,11.44,6,21,14,12.08,15.89,15.89-.63,10.81.32,13.35,4.45,3.81,8.26,3.5l3.82-.32s13.35,9.22,22.57,10.81,17.8-5.09,20-7.32,11.13-4.44,15.58-9.53,10.17-21.3,10.17-28.29V164.74Z" style="fill:#fff;stroke:#263238;stroke-linecap:round;stroke-linejoin:round"></path><path d="M163.55,158.38s-.77.68-1.62,3.28a35.25,35.25,0,0,0-1.29,5.62c-1.16,7.35.39,11.6.39,11.6l4.25-10L168,175l1.94-7.73,1.93,4.25,5-6.95" style="fill:#263238;stroke:#263238;stroke-linecap:round;stroke-linejoin:round"></path><path d="M241.42,214.44s5-5,5.41-15.85" style="fill:none;stroke:#263238;stroke-linecap:round;stroke-linejoin:round"></path><path d="M219.17,172.68a21.07,21.07,0,0,1,1.91,4.77,20.17,20.17,0,0,1,.64,4.45l2.86-4.77,1.91,2.86.95-2.22s3.18-1.27,2.86-4.45S219.17,172.68,219.17,172.68Z" style="fill:#263238;stroke:#263238;stroke-linecap:round;stroke-linejoin:round"></path><path d="M205.83,212.1a11.56,11.56,0,0,0,8.26-8.59" style="fill:none;stroke:#263238;stroke-linecap:round;stroke-linejoin:round"></path><path d="M195.29,189.45c1.38,1.53,1.79,3.42.91,4.21s-2.71.2-4.1-1.34-1.79-3.42-.91-4.21S193.91,187.92,195.29,189.45Z" style="fill:#263238"></path><path d="M183.53,186.64s0-7.31,10.17-5.72" style="fill:none;stroke:#263238;stroke-linecap:round;stroke-linejoin:round"></path><path d="M165.46,120.56l-5.09,27.65s-1-.32-1.59,4.77,2.23,7.63,4.77,9.21,17.8,10.49,50.86,12.4,51.17-4.45,54.67-5.72,6.35-4.45,5.4-11.13-1.27-8.58-1.27-8.58,1.27-17.48-4.77-32.42a70.1,70.1,0,0,0-16.53-24.15s1.27-4.77-.31-7S243,82.42,237.93,84a150.47,150.47,0,0,1-19.71,4.45c-6.36,1-18.75-1-34,10.18S166.73,116.74,165.46,120.56Z" style="fill:#77FFC0;stroke:#263238;stroke-linecap:round;stroke-linejoin:round"></path><path d="M216.67,165.18c13.27.59,34.51.64,46.37-3.94" style="fill:none;stroke:#263238;stroke-linecap:round;stroke-linejoin:round"></path><path d="M204.87,164.42s3.23.31,8.27.59" style="fill:none;stroke:#263238;stroke-linecap:round;stroke-linejoin:round"></path><path d="M264,157.74s-18.43,4.77-31.47,3.18" style="fill:none;stroke:#263238;stroke-linecap:round;stroke-linejoin:round"></path><polygon points="393.99 348.77 389.6 333.52 377.46 339.87 393.99 348.77" style="fill:#263238;stroke:#263238;stroke-linecap:round;stroke-linejoin:round"></polygon><path d="M322.33,243.3c-1.9-1.26-3.45-2.39-4.62-3.23" style="fill:none;stroke:#263238;stroke-linecap:round;stroke-linejoin:round"></path><path d="M412.43,255.64s-8.9-1.91-11.13-2.54-20,3.18-41.64,2.54a69.74,69.74,0,0,1-33.74-10.08" style="fill:none;stroke:#263238;stroke-linecap:round;stroke-linejoin:round"></path><path d="M357.16,192.19c3.93,0,6.64.2,6.64.2" style="fill:none;stroke:#263238;stroke-linecap:round;stroke-linejoin:round"></path><path d="M322.16,197.48s11.12-3.82,21-4.77c2.54-.25,5.15-.39,7.62-.46" style="fill:none;stroke:#263238;stroke-linecap:round;stroke-linejoin:round"></path><path d="M292.7,251.2a72.17,72.17,0,0,0,7.21,3.17" style="fill:none;stroke:#263238;stroke-linecap:round;stroke-linejoin:round"></path><path d="M268.12,231.49a76,76,0,0,0,21.33,17.95" style="fill:none;stroke:#263238;stroke-linecap:round;stroke-linejoin:round"></path><path d="M303.72,237.52s6,6,17.48,8.27" style="fill:none;stroke:#263238;stroke-linecap:round;stroke-linejoin:round"></path><path d="M392.07,278.43c1.87.82,3.69,1.7,5.42,2.64" style="fill:none;stroke:#263238;stroke-linecap:round;stroke-linejoin:round"></path><path d="M337.41,266.45s28,1.67,50.31,10.2" style="fill:none;stroke:#263238;stroke-linecap:round;stroke-linejoin:round"></path><path d="M394.94,274.39s6,2.55,9.54,7.31" style="fill:none;stroke:#263238;stroke-linecap:round;stroke-linejoin:round"></path><path d="M317.36,369.67s13.92,29.33,14.11,30.27-.38,5.83-8.28,12-13,7.14-13.16,10.71-1.32,7.9,7,11.1,30.08,3.57,38.54-3,20.12-15.8,20.69-22.19-11.47-27.45-13.73-34-6.39-18.81-6.39-18.81S339.55,371.55,317.36,369.67Z" style="fill:#263238;stroke:#263238;stroke-linecap:round;stroke-linejoin:round"></path><path d="M389.6,333.52s-2.6-12.4-12.77-29.88-26.21-28.85-46.09-36.24c-25.41-9.44-48.79,3-54.35,14.62-4.17,8.75,1.27,33.69,8.58,42s18.75,36.55,21.61,41.64,7.63,7.31,20,7,29.56-11.13,30.51-15.58a31.07,31.07,0,0,0,.32-9.21S380.38,347.18,389.6,333.52Z" style="fill:#9e9e9e;stroke:#263238;stroke-linecap:round;stroke-linejoin:round"></path><path d="M336.38,290.82a52.43,52.43,0,0,0-4.88-6.68" style="fill:none;stroke:#263238;stroke-linecap:round;stroke-linejoin:round"></path><path d="M357.44,347.82s-7.2-31.91-18.62-52.82" style="fill:none;stroke:#263238;stroke-linecap:round;stroke-linejoin:round"></path><path d="M336.5,284.74a38.32,38.32,0,0,1,7,11.78" style="fill:none;stroke:#263238;stroke-linecap:round;stroke-linejoin:round"></path><path d="M227.29,264.53s7.15,5.23,10.87,9.36a22.58,22.58,0,0,1,5.1,9.78c.55,1.79,4,3.17,4.68,8.67s-2.89,11.43-10.05,12.94-20.24-20.78-22.44-25.19S222.05,264.12,227.29,264.53Z" style="fill:#fff;stroke:#263238;stroke-linecap:round;stroke-linejoin:round"></path><path d="M198.64,260.64s42.44,53.49,44.26,53.95,7.88-4.85,8-7-47.59-51.83-47.59-51.83Z" style="fill:#9e9e9e;stroke:#263238;stroke-linecap:round;stroke-linejoin:round"></path><path d="M191.28,258.18a7.65,7.65,0,0,0,1.94-2.48l-.24-.28c-7.58,3.16-22-4.77-33.74-19-11-13.32-16.1-27.83-13-35.27l-.08-.08a7.06,7.06,0,0,0-1.28.84c-6.85,5.64-2,22.83,10.81,38.38S184.43,263.83,191.28,258.18Z" style="fill:#9e9e9e;stroke:#263238;stroke-linecap:round;stroke-linejoin:round"></path><path d="M184,216.92c-15.48-18.77-34.95-28.28-43.5-21.24s-2.93,28,12.55,46.75,34.95,28.28,43.5,21.24S199.42,235.69,184,216.92Zm7.33,41.26c-6.85,5.65-22.8-2.38-35.63-17.94S138,207.5,144.84,201.86s22.8,2.38,35.63,17.93S198.13,252.53,191.28,258.18Z" style="fill:#263238;stroke:#263238;stroke-linecap:round;stroke-linejoin:round"></path><path d="M189,212.33c-15.48-18.78-35-28.28-43.5-21.24l-5,4.59c8.55-7,28,2.47,43.5,21.24s21.09,39.7,12.55,46.75l5-4.6C210.07,252,204.45,231.1,189,212.33Z" style="fill:#9e9e9e;stroke:#263238;stroke-linecap:round;stroke-linejoin:round"></path><path d="M228.37,263.5a4.35,4.35,0,0,0-4-1.95,5.3,5.3,0,0,0-2.44.77c-1.94,1.3-4.75,4.75-3.67,7.35s6.27,11.46,9.29,11.46,6.06-3.68,6.71-6.06C234.74,273.3,230.55,266.74,228.37,263.5Z" style="fill:#fff;stroke:#263238;stroke-linecap:round;stroke-linejoin:round"></path><path d="M226.47,287.4s1.73-.87-.43-4.54-5.4-3.9-7.57-1.3-5.62,13.4-4.32,15.35,6,4.1,8,2.38S226.47,287.4,226.47,287.4Z" style="fill:#fff;stroke:#263238;stroke-linecap:round;stroke-linejoin:round"></path><path d="M226.81,285.12s-4.45,13.88-4.45,15.59,3,4.19,5.37,4.32,5.9-8.65,6.42-12.18S233.63,280.66,226.81,285.12Z" style="fill:#fff;stroke:#263238;stroke-linecap:round;stroke-linejoin:round"></path><path d="M234.15,292.85s1.7-1.44,3.67.65,2.35,7.6.39,10.61-4.85,4.85-6.68,4.19-2.75-3.8-2.75-3.8S233.36,296.12,234.15,292.85Z" style="fill:#fff;stroke:#263238;stroke-linecap:round;stroke-linejoin:round"></path><path d="M213.81,269.28s-6.83,7.17-7,10.92,4.27,6.15,6.66,6,8-8.2,9.22-10.08-1.71-6.65-3.76-8S214.67,268.76,213.81,269.28Z" style="fill:#fff;stroke:#263238;stroke-linecap:round;stroke-linejoin:round"></path><path d="M256.05,205.74s13.59-9.85,17.45-30.34" style="fill:none;stroke:#263238;stroke-linecap:round;stroke-linejoin:round"></path><path d="M247.22,174.24a39.27,39.27,0,0,0-1.55,5.41" style="fill:none;stroke:#263238;stroke-linecap:round;stroke-linejoin:round"></path></g><g id="freepik--Butterfly--inject-2"><path d="M140.72,281.39s-15.66-17.34-20-24,7.52-6.48,15-1.88S145.11,278.25,140.72,281.39Z" style="fill:#9e9e9e;stroke:#263238;stroke-linecap:round;stroke-linejoin:round"></path><path d="M140.72,281.39s-4.59-6.27-8.14-18.59-2.09-21.3.83-22.14,17.34,10.65,19.22,16.29.83,15.25.83,15.25.84-8.77,7.73-12.32,5.22,6.05,3.76,8.77-4.6,7.52-4.6,7.52S144.9,281.6,140.72,281.39Z" style="fill:#9e9e9e;stroke:#263238;stroke-linecap:round;stroke-linejoin:round"></path><path d="M140.72,281.39s-4.18.41-3.55,2.5,23.18-4.38,24.64-5.64-1.46-2.08-1.46-2.08Z" style="fill:#263238;stroke:#263238;stroke-linecap:round;stroke-linejoin:round"></path><path d="M120.88,274.08c9.61,1.67,16.29,9.81,16.29,9.81s-9-6.05-16.29-2.71" style="fill:none;stroke:#263238;stroke-linecap:round;stroke-linejoin:round"></path><line x1="143.23" y1="284.1" x2="149.07" y2="290.99" style="fill:none;stroke:#263238;stroke-linecap:round;stroke-linejoin:round"></line><line x1="145.94" y1="283.48" x2="150.54" y2="287.23" style="fill:none;stroke:#263238;stroke-linecap:round;stroke-linejoin:round"></line><line x1="151.16" y1="282.01" x2="155.76" y2="285.35" style="fill:none;stroke:#263238;stroke-linecap:round;stroke-linejoin:round"></line><line x1="155.76" y1="280.97" x2="160.35" y2="283.27" style="fill:none;stroke:#263238;stroke-linecap:round;stroke-linejoin:round"></line><path d="M133.41,240.66c-2.21.63-3.58,5.93-2.58,13.8,0-3.07.48-9.37,5.34-9.66a19.39,19.39,0,0,1,5.87.48C138.3,242.36,134.71,240.29,133.41,240.66Z" style="fill:#263238;stroke:#263238;stroke-linecap:round;stroke-linejoin:round"></path><path d="M123.8,252.2c-3.41.19-5.34,1.8-3.13,5.17.84,1.28,2.1,2.95,3.57,4.82l.43,0S121.4,254.49,123.8,252.2Z" style="fill:#263238;stroke:#263238;stroke-linecap:round;stroke-linejoin:round"></path><path d="M161.19,259.88a11.64,11.64,0,0,0-2.18,1.45l0,0s4.68.64,6.92,4.41C166.72,262.08,166.43,257.18,161.19,259.88Z" style="fill:#263238;stroke:#263238;stroke-linecap:round;stroke-linejoin:round"></path><path d="M143.41,273.45a32.23,32.23,0,0,0,1.34,3.32" style="fill:none;stroke:#263238;stroke-linecap:round;stroke-linejoin:round;stroke-width:0.5px"></path><path d="M138.92,253.7a141,141,0,0,0,3.73,17.41" style="fill:none;stroke:#263238;stroke-linecap:round;stroke-linejoin:round;stroke-width:0.5px"></path><path d="M138.32,249.47s.12,1,.37,2.71" style="fill:none;stroke:#263238;stroke-linecap:round;stroke-linejoin:round;stroke-width:0.5px"></path><path d="M145.92,264.68s0,6.83,1.56,11.51" style="fill:none;stroke:#263238;stroke-linecap:round;stroke-linejoin:round;stroke-width:0.5px"></path><path d="M150.35,262.15c0,4.4-.06,10.6.06,13.45" style="fill:none;stroke:#263238;stroke-linecap:round;stroke-linejoin:round;stroke-width:0.5px"></path><path d="M150.41,257.27s0,1,0,2.54" style="fill:none;stroke:#263238;stroke-linecap:round;stroke-linejoin:round;stroke-width:0.5px"></path><path d="M155.67,274.82a74,74,0,0,0,4.68-9.16" style="fill:none;stroke:#263238;stroke-linecap:round;stroke-linejoin:round;stroke-width:0.5px"></path></g></svg>
